<svg xmlns="http://www.w3.org/2000/svg" width="26" height="26" viewBox="0 0 26 26"><circle opacity=".25" fill="#2B2B2B" cx="13" cy="13" r="13"/><circle fill="#2B2B2B" cx="13" cy="13" r="10"/><path fill="#FFF" d="M15.991 9.459c.276.383.413.841.413 1.374 0 .55-.139.991-.417 1.325-.155.187-.384.358-.686.513.459.167.806.431 1.039.794.234.362.351.802.351 1.319 0 .533-.133 1.012-.401 1.435a2.488 2.488 0 0 1-1.654 1.16 6.27 6.27 0 0 1-1.272.122H9.309v-9h4.349c1.097.015 1.875.335 2.333.958zm-4.887.604v1.984h2.188c.391 0 .707-.074.951-.223.243-.149.365-.412.365-.791 0-.419-.161-.696-.483-.83-.278-.094-.633-.14-1.063-.14h-1.958zm0 3.474v2.4h2.185c.391 0 .694-.053.912-.159.394-.195.591-.57.591-1.123 0-.468-.191-.79-.573-.965-.214-.098-.514-.149-.9-.153h-2.215z"/></svg>