<?xml version="1.0" encoding="utf-8"?>
<!-- Generator: Adobe Illustrator 17.0.0, SVG Export Plug-In . SVG Version: 6.00 Build 0)  -->
<!DOCTYPE svg PUBLIC "-//W3C//DTD SVG 1.1//EN" "http://www.w3.org/Graphics/SVG/1.1/DTD/svg11.dtd">
<svg version="1.1" id="Layer_2" xmlns="http://www.w3.org/2000/svg" xmlns:xlink="http://www.w3.org/1999/xlink" x="0px" y="0px"
	 width="26px" height="26px" viewBox="0 0 26 26" enable-background="new 0 0 26 26" xml:space="preserve">
<circle opacity="0.25" fill="#2B2B2B" cx="13" cy="13" r="13"/>
<circle fill="#2B2B2B" cx="13" cy="13" r="10"/>
<g>
	<path fill="#FFFFFF" d="M15.991,9.459c0.276,0.383,0.413,0.841,0.413,1.374c0,0.55-0.139,0.991-0.417,1.325
		c-0.155,0.187-0.384,0.358-0.686,0.513c0.459,0.167,0.806,0.431,1.039,0.794c0.234,0.362,0.351,0.802,0.351,1.319
		c0,0.533-0.133,1.012-0.401,1.435c-0.17,0.281-0.383,0.517-0.637,0.708c-0.287,0.22-0.627,0.37-1.017,0.452
		c-0.391,0.081-0.815,0.122-1.272,0.122H9.309v-9h4.349C14.755,8.516,15.533,8.836,15.991,9.459z M11.104,10.063v1.984h2.188
		c0.391,0,0.707-0.074,0.951-0.223c0.243-0.149,0.365-0.412,0.365-0.791c0-0.419-0.161-0.696-0.483-0.83
		c-0.278-0.094-0.633-0.14-1.063-0.14H11.104z M11.104,13.537v2.4h2.185c0.391,0,0.694-0.053,0.912-0.159
		c0.394-0.195,0.591-0.57,0.591-1.123c0-0.468-0.191-0.79-0.573-0.965c-0.214-0.098-0.514-0.149-0.9-0.153H11.104z"/>
</g>
</svg>
