<?xml version="1.0" encoding="utf-8"?>
<!-- Generator: Adobe Illustrator 17.0.0, SVG Export Plug-In . SVG Version: 6.00 Build 0)  -->
<!DOCTYPE svg PUBLIC "-//W3C//DTD SVG 1.1//EN" "http://www.w3.org/Graphics/SVG/1.1/DTD/svg11.dtd">
<svg version="1.1" id="Layer_2" xmlns="http://www.w3.org/2000/svg" xmlns:xlink="http://www.w3.org/1999/xlink" x="0px" y="0px"
	 width="40px" height="48px" viewBox="0 0 40 48" enable-background="new 0 0 40 48" xml:space="preserve">
<path d="M38,0H2C0.895,0,0,0.895,0,2v27.921c0,1.105,0.895,2,2,2h16V48h4V31.921h16c1.105,0,2-0.895,2-2V2C40,0.895,39.105,0,38,0z"
	/>
<path fill="#FFFFFF" d="M38,21.894c0,1.105-0.895,2-2,2H4c-1.105,0-2-0.895-2-2v-18c0-1.105,0.895-2,2-2h32c1.105,0,2,0.895,2,2
	V21.894z"/>
</svg>
